<svg width="300" height="300" viewBox="0 0 300 300" fill="none" xmlns="http://www.w3.org/2000/svg">
<rect width="300" height="300" fill="url(#paint0_linear_1_4)"/>
<path d="M79 170.1H52.8L46.6 186H31.1L60.5 108.6H71.9L100.5 186H84.8L79 170.1ZM74.9 158.1L65.5 130.7H65.3L57 158.1H74.9ZM119.678 110.6V186H104.978V110.6H119.678ZM174.069 138.9C175.802 140.633 176.902 142.167 177.369 143.5C177.902 144.833 177.869 146.133 177.269 147.4C176.735 148.667 175.669 150.1 174.069 151.7L142.169 183.9C140.635 185.433 139.235 186.467 137.969 187C136.702 187.6 135.402 187.633 134.069 187.1C132.802 186.567 131.302 185.5 129.569 183.9C127.902 182.167 126.802 180.633 126.269 179.3C125.802 177.967 125.869 176.667 126.469 175.4C127.069 174.067 128.102 172.667 129.569 171.2L161.469 138.9C163.935 136.567 166.035 135.367 167.769 135.3C169.502 135.167 171.602 136.367 174.069 138.9ZM129.569 138.9C131.235 137.233 132.702 136.167 133.969 135.7C135.302 135.167 136.602 135.167 137.869 135.7C139.202 136.233 140.635 137.3 142.169 138.9L174.069 171.2C175.602 172.733 176.669 174.133 177.269 175.4C177.869 176.667 177.935 177.967 177.469 179.3C177.002 180.633 175.869 182.167 174.069 183.9C172.335 185.567 170.835 186.633 169.569 187.1C168.302 187.633 167.035 187.6 165.769 187C164.569 186.467 163.135 185.433 161.469 183.9L129.569 151.7C128.035 150.167 126.969 148.767 126.369 147.5C125.835 146.233 125.802 144.933 126.269 143.6C126.802 142.2 127.902 140.633 129.569 138.9Z" fill="white" fill-opacity="0.85"/>
<path d="M179.35 162.7L180.85 153.1C191.65 149.95 193.9 142.15 196 129.1L200.35 101.05C202.3 88.9 211.9 80.8 216.4 80.8H227.35L225.55 91.9H219.55C214.15 91.9 213.4 96.4 212.35 103.3L207.85 131.65C205.15 149.2 194.5 156.7 192.25 157.9C194.05 159.1 202.3 166.6 199.6 184.3L195.1 212.5C193.9 219.4 193.3 223.9 198.7 223.9H204.7L202.9 235H191.95C187.45 235 180.55 226.9 182.35 214.75L186.85 186.85C188.95 173.65 189.1 165.85 179.35 162.7ZM266.89 153.1L265.39 162.7C254.74 165.85 252.49 173.65 250.39 186.85L245.89 214.75C244.09 226.9 234.49 235 229.99 235H219.04L220.84 223.9H226.84C232.24 223.9 232.84 219.4 234.04 212.5L238.54 184.3C241.24 166.6 251.89 159.1 253.99 157.9C252.34 156.7 244.09 149.2 246.79 131.65L251.29 103.3C252.34 96.4 253.09 91.9 247.69 91.9H241.69L243.49 80.8H254.44C258.94 80.8 265.84 88.9 263.89 101.05L259.54 129.1C257.44 142.15 257.29 149.95 266.89 153.1Z" fill="white" fill-opacity="0.85"/>
<defs>
<linearGradient id="paint0_linear_1_4" x1="-48" y1="275" x2="361" y2="81" gradientUnits="userSpaceOnUse">
<stop offset="0.145317" stop-color="#0085C7"/>
<stop offset="0.644729" stop-color="#A80A56"/>
<stop offset="1" stop-color="#BC18F2"/>
</linearGradient>
</defs>
</svg>
